<?xml version="1.0" encoding="UTF-8"?>
<!DOCTYPE svg
  PUBLIC '-//W3C//DTD SVG 1.1//EN'
  'http://www.w3.org/Graphics/SVG/1.1/DTD/svg11.dtd'>
<svg height="23.000mm" version="1.1" width="44.000mm" xmlns="http://www.w3.org/2000/svg">
    <!--Autogenerated with python-barcode 0.9.0-->
    <g id="barcode_group">
        <rect height="100%" style="fill:white" width="100%"/>
        <rect height="15.000mm" style="fill:black;" width="0.330mm" x="6.500mm" y="1.000mm"/>
        <rect height="15.000mm" style="fill:white;" width="0.330mm" x="6.830mm" y="1.000mm"/>
        <rect height="15.000mm" style="fill:black;" width="0.330mm" x="7.160mm" y="1.000mm"/>
        <rect height="15.000mm" style="fill:white;" width="0.660mm" x="7.490mm" y="1.000mm"/>
        <rect height="15.000mm" style="fill:black;" width="0.330mm" x="8.150mm" y="1.000mm"/>
        <rect height="15.000mm" style="fill:white;" width="0.660mm" x="8.480mm" y="1.000mm"/>
        <rect height="15.000mm" style="fill:black;" width="0.660mm" x="9.140mm" y="1.000mm"/>
        <rect height="15.000mm" style="fill:white;" width="0.330mm" x="9.800mm" y="1.000mm"/>
        <rect height="15.000mm" style="fill:black;" width="1.320mm" x="10.130mm" y="1.000mm"/>
        <rect height="15.000mm" style="fill:white;" width="0.330mm" x="11.450mm" y="1.000mm"/>
        <rect height="15.000mm" style="fill:black;" width="0.330mm" x="11.780mm" y="1.000mm"/>
        <rect height="15.000mm" style="fill:white;" width="0.660mm" x="12.110mm" y="1.000mm"/>
        <rect height="15.000mm" style="fill:black;" width="0.330mm" x="12.770mm" y="1.000mm"/>
        <rect height="15.000mm" style="fill:white;" width="0.990mm" x="13.100mm" y="1.000mm"/>
        <rect height="15.000mm" style="fill:black;" width="0.330mm" x="14.090mm" y="1.000mm"/>
        <rect height="15.000mm" style="fill:white;" width="0.330mm" x="14.420mm" y="1.000mm"/>
        <rect height="15.000mm" style="fill:black;" width="0.330mm" x="14.750mm" y="1.000mm"/>
        <rect height="15.000mm" style="fill:white;" width="0.990mm" x="15.080mm" y="1.000mm"/>
        <rect height="15.000mm" style="fill:black;" width="0.660mm" x="16.070mm" y="1.000mm"/>
        <rect height="15.000mm" style="fill:white;" width="0.990mm" x="16.730mm" y="1.000mm"/>
        <rect height="15.000mm" style="fill:black;" width="0.330mm" x="17.720mm" y="1.000mm"/>
        <rect height="15.000mm" style="fill:white;" width="0.660mm" x="18.050mm" y="1.000mm"/>
        <rect height="15.000mm" style="fill:black;" width="0.330mm" x="18.710mm" y="1.000mm"/>
        <rect height="15.000mm" style="fill:white;" width="0.330mm" x="19.040mm" y="1.000mm"/>
        <rect height="15.000mm" style="fill:black;" width="0.990mm" x="19.370mm" y="1.000mm"/>
        <rect height="15.000mm" style="fill:white;" width="0.660mm" x="20.360mm" y="1.000mm"/>
        <rect height="15.000mm" style="fill:black;" width="0.330mm" x="21.020mm" y="1.000mm"/>
        <rect height="15.000mm" style="fill:white;" width="0.330mm" x="21.350mm" y="1.000mm"/>
        <rect height="15.000mm" style="fill:black;" width="0.330mm" x="21.680mm" y="1.000mm"/>
        <rect height="15.000mm" style="fill:white;" width="0.330mm" x="22.010mm" y="1.000mm"/>
        <rect height="15.000mm" style="fill:black;" width="0.330mm" x="22.340mm" y="1.000mm"/>
        <rect height="15.000mm" style="fill:white;" width="0.330mm" x="22.670mm" y="1.000mm"/>
        <rect height="15.000mm" style="fill:black;" width="0.990mm" x="23.000mm" y="1.000mm"/>
        <rect height="15.000mm" style="fill:white;" width="0.330mm" x="23.990mm" y="1.000mm"/>
        <rect height="15.000mm" style="fill:black;" width="0.330mm" x="24.320mm" y="1.000mm"/>
        <rect height="15.000mm" style="fill:white;" width="0.660mm" x="24.650mm" y="1.000mm"/>
        <rect height="15.000mm" style="fill:black;" width="0.330mm" x="25.310mm" y="1.000mm"/>
        <rect height="15.000mm" style="fill:white;" width="0.990mm" x="25.640mm" y="1.000mm"/>
        <rect height="15.000mm" style="fill:black;" width="0.330mm" x="26.630mm" y="1.000mm"/>
        <rect height="15.000mm" style="fill:white;" width="0.660mm" x="26.960mm" y="1.000mm"/>
        <rect height="15.000mm" style="fill:black;" width="0.330mm" x="27.620mm" y="1.000mm"/>
        <rect height="15.000mm" style="fill:white;" width="0.660mm" x="27.950mm" y="1.000mm"/>
        <rect height="15.000mm" style="fill:black;" width="0.990mm" x="28.610mm" y="1.000mm"/>
        <rect height="15.000mm" style="fill:white;" width="0.330mm" x="29.600mm" y="1.000mm"/>
        <rect height="15.000mm" style="fill:black;" width="0.330mm" x="29.930mm" y="1.000mm"/>
        <rect height="15.000mm" style="fill:white;" width="0.330mm" x="30.260mm" y="1.000mm"/>
        <rect height="15.000mm" style="fill:black;" width="0.990mm" x="30.590mm" y="1.000mm"/>
        <rect height="15.000mm" style="fill:white;" width="0.660mm" x="31.580mm" y="1.000mm"/>
        <rect height="15.000mm" style="fill:black;" width="0.330mm" x="32.240mm" y="1.000mm"/>
        <rect height="15.000mm" style="fill:white;" width="0.330mm" x="32.570mm" y="1.000mm"/>
        <rect height="15.000mm" style="fill:black;" width="0.330mm" x="32.900mm" y="1.000mm"/>
        <rect height="15.000mm" style="fill:white;" width="1.320mm" x="33.230mm" y="1.000mm"/>
        <rect height="15.000mm" style="fill:black;" width="0.330mm" x="34.550mm" y="1.000mm"/>
        <rect height="15.000mm" style="fill:white;" width="0.660mm" x="34.880mm" y="1.000mm"/>
        <rect height="15.000mm" style="fill:black;" width="0.990mm" x="35.540mm" y="1.000mm"/>
        <rect height="15.000mm" style="fill:white;" width="0.330mm" x="36.530mm" y="1.000mm"/>
        <rect height="15.000mm" style="fill:black;" width="0.330mm" x="36.860mm" y="1.000mm"/>
        <rect height="15.000mm" style="fill:white;" width="0.330mm" x="37.190mm" y="1.000mm"/>
        <rect height="15.000mm" style="fill:black;" width="0.330mm" x="37.520mm" y="1.000mm"/>
        <text style="fill:black;font-size:10pt;text-anchor:middle;" x="22.175mm" y="21.000mm">1237485975465</text>
    </g>
</svg>
